<svg width="24" height="24" viewBox="0 0 24 24" fill="none" xmlns="http://www.w3.org/2000/svg">
<path d="M19.6641 17.5861C19.3874 18.2653 19.0454 18.913 18.6436 19.5191C18.1068 20.3262 17.666 20.8839 17.3282 21.1943C16.8034 21.7015 16.2396 21.9625 15.6369 21.9772C15.2051 21.9772 14.6833 21.8478 14.0756 21.5847C13.4659 21.3227 12.9061 21.1943 12.3933 21.1943C11.8566 21.1943 11.2808 21.3227 10.6641 21.5847C10.0484 21.8478 9.55057 21.9856 9.16974 21.9982C8.59299 22.0245 8.01624 21.7573 7.44149 21.1943C7.07465 20.8576 6.61586 20.2788 6.0651 19.4602C5.47535 18.5879 4.99057 17.5724 4.61073 16.4181C4.20391 15.1691 4 13.9611 4 12.7909C4 11.4514 4.27488 10.295 4.82564 9.3269C5.2422 8.5666 5.83774 7.93206 6.55488 7.48439C7.26204 7.03788 8.06931 6.79746 8.89386 6.78779C9.35366 6.78779 9.95639 6.93721 10.7031 7.23185C11.4497 7.52648 11.9295 7.6759 12.1384 7.6759C12.2964 7.6759 12.8271 7.50017 13.7307 7.15187C14.5834 6.82883 15.3031 6.69519 15.8928 6.74781C17.4921 6.88355 18.6926 7.54647 19.4912 8.74184C18.0618 9.65415 17.3552 10.9305 17.3692 12.5689C17.3811 13.8453 17.822 14.907 18.6856 15.7499C19.0674 16.1345 19.5129 16.4423 20 16.658C19.894 16.9811 19.7821 17.2894 19.6641 17.5861ZM15.9987 2.40091C15.9987 3.40056 15.6509 4.33497 14.9602 5.19888C14.1246 6.22588 13.115 6.82041 12.0205 6.72676C12.0062 6.60106 11.9992 6.47455 11.9995 6.34795C11.9995 5.38723 12.3953 4.36022 13.102 3.51947C13.4539 3.09435 13.9017 2.73974 14.4444 2.45773C14.9862 2.17994 15.498 2.02631 15.9798 2C15.9928 2.13469 15.9987 2.26833 15.9987 2.40091Z" fill="#383A3A"/>
</svg>
