<svg width="20" height="20" viewBox="0 0 20 20" fill="none" xmlns="http://www.w3.org/2000/svg">
<path d="M16.2018 10.0665L15.7812 10.3369V10.3369L16.2018 10.0665ZM17.1247 11.5023L17.5453 11.2319V11.2319L17.1247 11.5023ZM2.8753 11.5023L2.45469 11.2319H2.45469L2.8753 11.5023ZM3.79816 10.0665L4.21877 10.3369L3.79816 10.0665ZM15.858 15.0109L15.7219 14.5298V14.5298L15.858 15.0109ZM4.14197 15.0109L4.27806 14.5298H4.27806L4.14197 15.0109ZM15.6243 7.5013H15.1243V8.08805H15.6243H16.1243V7.5013H15.6243ZM16.2018 10.0665L15.7812 10.3369L16.7041 11.7726L17.1247 11.5023L17.5453 11.2319L16.6224 9.79615L16.2018 10.0665ZM2.8753 11.5023L3.2959 11.7726L4.21877 10.3369L3.79816 10.0665L3.37756 9.79615L2.45469 11.2319L2.8753 11.5023ZM4.37573 8.08805H4.87573V7.5013H4.37573H3.87573V8.08805H4.37573ZM15.858 15.0109L15.7219 14.5298C11.9756 15.5895 8.02439 15.5895 4.27806 14.5298L4.14197 15.0109L4.00588 15.4921C7.93017 16.6021 12.0698 16.6021 15.9941 15.4921L15.858 15.0109ZM3.79816 10.0665L4.21877 10.3369C4.64781 9.66939 4.87573 8.88696 4.87573 8.08805H4.37573H3.87573C3.87573 8.69746 3.70172 9.29184 3.37756 9.79615L3.79816 10.0665ZM15.6243 8.08805H15.1243C15.1243 8.88696 15.3522 9.66939 15.7812 10.3369L16.2018 10.0665L16.6224 9.79615C16.2983 9.29184 16.1243 8.69746 16.1243 8.08805H15.6243ZM2.8753 11.5023L2.45469 11.2319C1.4396 12.8111 2.20008 14.9813 4.00588 15.4921L4.14197 15.0109L4.27806 14.5298C3.15167 14.2112 2.6251 12.8162 3.2959 11.7726L2.8753 11.5023ZM17.1247 11.5023L16.7041 11.7726C17.3749 12.8162 16.8483 14.2112 15.7219 14.5298L15.858 15.0109L15.9941 15.4921C17.7999 14.9813 18.5604 12.8111 17.5453 11.2319L17.1247 11.5023ZM10 1.66797V2.16797C12.813 2.16797 15.1243 4.53843 15.1243 7.5013H15.6243H16.1243C16.1243 4.02085 13.3994 1.16797 10 1.16797V1.66797ZM10 1.66797V1.16797C6.60061 1.16797 3.87573 4.02085 3.87573 7.5013H4.37573H4.87573C4.87573 4.53843 7.18698 2.16797 10 2.16797V1.66797Z" fill="white"/>
<path d="M6.03613 15.4531C6.57858 17.1241 8.14822 18.3321 10 18.3321C11.8518 18.3321 13.4214 17.1241 13.9639 15.4531C11.3427 15.945 8.65733 15.945 6.03613 15.4531Z" fill="#F9FAFB"/>
</svg>
