<svg width="12" height="12" viewBox="0 0 12 12" fill="none" xmlns="http://www.w3.org/2000/svg">
<path fill-rule="evenodd" clip-rule="evenodd" d="M3.5 2.5H5.5C6.44281 2.5 6.91421 2.5 7.20711 2.79289C7.5 3.08579 7.5 3.55719 7.5 4.5V10.625H8.25H10.5H11C11.2071 10.625 11.375 10.7929 11.375 11C11.375 11.2071 11.2071 11.375 11 11.375H1C0.792893 11.375 0.625 11.2071 0.625 11C0.625 10.7929 0.792893 10.625 1 10.625H1.5V4.5C1.5 3.55719 1.5 3.08579 1.79289 2.79289C2.08579 2.5 2.55719 2.5 3.5 2.5ZM2.625 4C2.625 3.79289 2.79289 3.625 3 3.625H6C6.20711 3.625 6.375 3.79289 6.375 4C6.375 4.20711 6.20711 4.375 6 4.375H3C2.79289 4.375 2.625 4.20711 2.625 4ZM2.625 5.5C2.625 5.29289 2.79289 5.125 3 5.125H6C6.20711 5.125 6.375 5.29289 6.375 5.5C6.375 5.70711 6.20711 5.875 6 5.875H3C2.79289 5.875 2.625 5.70711 2.625 5.5ZM2.625 7C2.625 6.79289 2.79289 6.625 3 6.625H6C6.20711 6.625 6.375 6.79289 6.375 7C6.375 7.20711 6.20711 7.375 6 7.375H3C2.79289 7.375 2.625 7.20711 2.625 7ZM4.5 9.125C4.70711 9.125 4.875 9.29289 4.875 9.5V10.625H4.125V9.5C4.125 9.29289 4.29289 9.125 4.5 9.125Z" fill="#6F6F74"/>
<path opacity="0.5" d="M7.49998 1H8.49998C9.44279 1 9.9142 1 10.2071 1.29289C10.5 1.58579 10.5 2.05719 10.5 3V10.625H7.5V4.5C7.5 3.55719 7.5 3.08579 7.20711 2.79289C6.92081 2.5066 6.46395 2.50015 5.56299 2.5V1.74999C5.60514 1.55637 5.67548 1.41029 5.79288 1.29289C6.08577 1 6.55718 1 7.49998 1Z" fill="#6F6F74"/>
</svg>
