<svg width="12" height="12" viewBox="0 0 12 12" fill="none" xmlns="http://www.w3.org/2000/svg">
<path d="M9.71091 0.113731L6 3.82464L2.28909 0.113731C2.21944 0.0418812 2.12364 0.00132676 2.02357 0.00132676C1.9235 0.00132676 1.8277 0.0418812 1.75805 0.113731L0.113731 1.75549C0.0410733 1.82523 0 1.92158 0 2.02229C0 2.123 0.0410733 2.21935 0.113731 2.28909L3.82464 6L0.113731 9.71091C0.0418812 9.78056 0.00132676 9.87636 0.00132676 9.97643C0.00132676 10.0765 0.0418812 10.1723 0.113731 10.242L1.75549 11.8863C1.82523 11.9589 1.92158 12 2.02229 12C2.123 12 2.21935 11.9589 2.28909 11.8863L6 8.17536L9.71091 11.8863C9.78056 11.9581 9.87636 11.9987 9.97643 11.9987C10.0765 11.9987 10.1723 11.9581 10.242 11.8863L11.8863 10.2445C11.9589 10.1748 12 10.0784 12 9.97771C12 9.877 11.9589 9.78065 11.8863 9.71091L8.17536 6L11.8863 2.28909C11.9581 2.21944 11.9987 2.12364 11.9987 2.02357C11.9987 1.9235 11.9581 1.8277 11.8863 1.75805L10.2445 0.113731C10.1748 0.0410733 10.0784 0 9.97771 0C9.877 0 9.78065 0.0410733 9.71091 0.113731Z" fill="white"/>
</svg>
