<svg width="20" height="20" viewBox="0 0 20 20" fill="none" xmlns="http://www.w3.org/2000/svg">
<path d="M2.35611 5.53659C2.19294 5.15587 1.75203 4.97951 1.37131 5.14267C0.990586 5.30584 0.814223 5.74675 0.977389 6.12747L1.66675 5.83203L2.35611 5.53659ZM12.9894 11.1059L12.7147 10.4081V10.4081L12.9894 11.1059ZM7.6394 11.515C7.8653 11.1678 7.76698 10.7032 7.4198 10.4773C7.07261 10.2514 6.60803 10.3497 6.38212 10.6969L7.01076 11.1059L7.6394 11.515ZM5.20478 12.5063C4.97887 12.8535 5.07719 13.3181 5.42438 13.544C5.77156 13.7699 6.23615 13.6716 6.46205 13.3244L5.83341 12.9154L5.20478 12.5063ZM19.0228 6.12747C19.1859 5.74675 19.0096 5.30584 18.6289 5.14267C18.2481 4.97951 17.8072 5.15587 17.6441 5.53659L18.3334 5.83203L19.0228 6.12747ZM15.8334 9.27273L15.3201 8.72588V8.72588L15.8334 9.27273ZM16.5531 11.0531C16.846 11.346 17.3209 11.346 17.6137 11.0531C17.9066 10.7602 17.9066 10.2853 17.6137 9.9924L17.0834 10.5227L16.5531 11.0531ZM9.25008 13.7487C9.25008 14.1629 9.58587 14.4987 10.0001 14.4987C10.4143 14.4987 10.7501 14.1629 10.7501 13.7487H10.0001H9.25008ZM13.5381 13.3244C13.764 13.6716 14.2286 13.7699 14.5758 13.544C14.923 13.3181 15.0213 12.8535 14.7954 12.5063L14.1667 12.9154L13.5381 13.3244ZM4.69708 9.80306C4.98997 9.51017 4.98997 9.03529 4.69708 8.7424C4.40418 8.44951 3.92931 8.44951 3.63642 8.7424L4.16675 9.27273L4.69708 9.80306ZM2.38642 9.9924C2.09352 10.2853 2.09352 10.7602 2.38642 11.0531C2.67931 11.346 3.15418 11.346 3.44708 11.0531L2.91675 10.5227L2.38642 9.9924ZM10.0001 11.6654V10.9154C7.35952 10.9154 5.46141 9.60163 4.19551 8.23836C3.56278 7.55696 3.09854 6.8732 2.79299 6.35988C2.64064 6.10392 2.52891 5.89232 2.45638 5.74727C2.42015 5.67481 2.39379 5.61913 2.37712 5.58304C2.36879 5.565 2.36289 5.55188 2.35939 5.54401C2.35764 5.54008 2.3565 5.53747 2.35595 5.53622C2.35568 5.53559 2.35555 5.53531 2.35558 5.53537C2.35559 5.5354 2.35564 5.53551 2.35573 5.53572C2.35578 5.53582 2.35587 5.53604 2.35589 5.53609C2.35599 5.53633 2.35611 5.53659 1.66675 5.83203C0.977389 6.12747 0.977521 6.12778 0.977662 6.12811C0.977722 6.12825 0.977874 6.1286 0.977994 6.12888C0.978234 6.12944 0.978514 6.13008 0.978832 6.13082C0.97947 6.13229 0.980264 6.13412 0.981214 6.1363C0.983115 6.14066 0.985644 6.14641 0.988804 6.15352C0.995124 6.16773 1.00397 6.18736 1.01537 6.21204C1.03817 6.2614 1.07122 6.33105 1.11474 6.41809C1.20173 6.59206 1.33088 6.83618 1.50405 7.1271C1.84954 7.70753 2.37488 8.4821 3.09632 9.25904C4.53875 10.8124 6.80731 12.4154 10.0001 12.4154V11.6654ZM12.9894 11.1059L12.7147 10.4081C11.92 10.7209 11.0185 10.9154 10.0001 10.9154V11.6654V12.4154C11.215 12.4154 12.3024 12.1824 13.2641 11.8038L12.9894 11.1059ZM7.01076 11.1059L6.38212 10.6969L5.20478 12.5063L5.83341 12.9154L6.46205 13.3244L7.6394 11.515L7.01076 11.1059ZM18.3334 5.83203C17.6441 5.53659 17.6441 5.53644 17.6442 5.53629C17.6442 5.53625 17.6443 5.53612 17.6443 5.53604C17.6444 5.53588 17.6444 5.53575 17.6445 5.53565C17.6445 5.53544 17.6446 5.53535 17.6446 5.53536C17.6446 5.53539 17.6444 5.53584 17.644 5.53673C17.6432 5.5385 17.6417 5.54197 17.6394 5.54708C17.6348 5.55731 17.6272 5.57408 17.6166 5.59692C17.5953 5.6426 17.5618 5.71243 17.5159 5.80246C17.424 5.98271 17.2827 6.24292 17.0902 6.55193C16.7038 7.1721 16.1181 7.97688 15.3201 8.72588L15.8334 9.27273L16.3467 9.81958C17.2642 8.95839 17.9286 8.04282 18.3633 7.34519C18.5813 6.9953 18.7434 6.69725 18.8522 6.48395C18.9066 6.37722 18.9478 6.29146 18.9761 6.23074C18.9903 6.20038 19.0012 6.17626 19.009 6.15888C19.0128 6.15019 19.0159 6.14319 19.0182 6.13793C19.0194 6.13531 19.0203 6.13312 19.0211 6.13137C19.0215 6.1305 19.0218 6.12973 19.0221 6.12908C19.0222 6.12876 19.0223 6.12846 19.0225 6.12819C19.0225 6.12806 19.0226 6.12788 19.0226 6.12781C19.0227 6.12764 19.0228 6.12747 18.3334 5.83203ZM15.8334 9.27273L15.3201 8.72588C14.6133 9.38934 13.7482 10.0013 12.7147 10.4081L12.9894 11.1059L13.2641 11.8038C14.5098 11.3135 15.5322 10.5841 16.3467 9.81958L15.8334 9.27273ZM15.8334 9.27273L15.3031 9.80306L16.5531 11.0531L17.0834 10.5227L17.6137 9.9924L16.3637 8.7424L15.8334 9.27273ZM10.0001 11.6654H9.25008V13.7487H10.0001H10.7501V11.6654H10.0001ZM12.9894 11.1059L12.3608 11.515L13.5381 13.3244L14.1667 12.9154L14.7954 12.5063L13.618 10.6969L12.9894 11.1059ZM4.16675 9.27273L3.63642 8.7424L2.38642 9.9924L2.91675 10.5227L3.44708 11.0531L4.69708 9.80306L4.16675 9.27273Z" fill="#8C8C93"/>
</svg>
