<svg width="20" height="20" viewBox="0 0 20 20" fill="none" xmlns="http://www.w3.org/2000/svg">
<path d="M2.72891 12.7451C2.02064 11.8249 1.6665 11.3648 1.6665 9.9987C1.6665 8.63255 2.02064 8.17247 2.72891 7.25231C4.14314 5.415 6.51493 3.33203 9.99984 3.33203C13.4847 3.33203 15.8565 5.415 17.2708 7.25231C17.979 8.17247 18.3332 8.63255 18.3332 9.9987C18.3332 11.3648 17.979 11.8249 17.2708 12.7451C15.8565 14.5824 13.4847 16.6654 9.99984 16.6654C6.51493 16.6654 4.14314 14.5824 2.72891 12.7451Z" stroke="#8C8C93" stroke-width="1.5" stroke-linecap="round"/>
<path d="M12.5 10C12.5 11.3807 11.3807 12.5 10 12.5C8.61929 12.5 7.5 11.3807 7.5 10C7.5 8.61929 8.61929 7.5 10 7.5C11.3807 7.5 12.5 8.61929 12.5 10Z" stroke="#8C8C93" stroke-width="1.5" stroke-linecap="round"/>
</svg>
