<svg width="32" height="32" viewBox="0 0 32 32" fill="none" xmlns="http://www.w3.org/2000/svg">
<path d="M16.0039 12.8613C19.911 12.8613 23.0507 15.8867 23.0508 19.5479C23.0508 19.645 22.981 19.7148 22.8838 19.7148C22.7868 19.7146 22.7178 19.6449 22.7178 19.5479C22.7177 16.0175 19.6782 13.1943 16.0039 13.1943C12.3297 13.1945 9.29108 16.0176 9.29102 19.5479C9.29102 21.5381 9.73266 23.3977 10.5938 24.9238V24.9248C11.4739 26.5063 12.0929 27.1953 13.1348 28.251V28.252C13.2016 28.3223 13.2024 28.4247 13.1416 28.498C13.0879 28.5408 13.0406 28.5547 13.0039 28.5547C12.9546 28.5546 12.9229 28.5357 12.9092 28.5205L12.9004 28.5107L12.8906 28.501C11.757 27.3673 11.1612 26.6572 10.2949 25.0928L10.2939 25.0898L10.1348 24.7939C9.36541 23.2954 8.95801 21.4924 8.95801 19.5479C8.95807 15.8868 12.097 12.8615 16.0039 12.8613ZM15.9512 9.59473C21.7664 9.59488 26.4509 14.075 26.4512 19.5342C26.4512 21.3967 24.8561 22.9551 22.8438 22.9551C20.8316 22.9548 19.2373 21.3965 19.2373 19.5342C19.237 17.7998 17.7403 16.4482 15.9639 16.4482C14.1876 16.4484 12.6907 17.7999 12.6904 19.5342C12.6904 21.9459 13.6229 24.2083 15.332 25.9033H15.333C16.6648 27.221 17.955 27.955 19.9111 28.4961V28.4971L19.9189 28.499C19.9959 28.5192 20.0531 28.6061 20.0283 28.6982L20.0244 28.71L20.0225 28.7217C20.0158 28.7522 19.9979 28.7798 19.9697 28.8018C19.9406 28.8244 19.9093 28.8333 19.8867 28.834C19.8849 28.8337 19.8826 28.8335 19.8799 28.833C19.8679 28.831 19.853 28.8281 19.8369 28.8242C17.9244 28.2941 16.6545 27.6053 15.3604 26.3994L15.1016 26.1514C13.3307 24.3923 12.3574 22.0541 12.3574 19.5479C12.3575 17.6855 13.9517 16.1281 15.9639 16.1279C17.9762 16.1279 19.5712 17.6854 19.5713 19.5479C19.5713 21.2823 21.0674 22.6345 22.8438 22.6348C24.6203 22.6348 26.1172 21.2825 26.1172 19.5479C26.1171 14.2174 21.5319 9.94156 15.9512 9.94141C11.9849 9.94141 8.33611 12.1472 6.6875 15.5977C6.13015 16.7552 5.8506 18.098 5.85059 19.5479C5.85059 20.6276 5.94924 22.3314 6.77637 24.5371L6.77734 24.541C6.81282 24.6335 6.76367 24.718 6.69434 24.7422L6.68555 24.7451L6.67773 24.748C6.63902 24.7628 6.59624 24.7609 6.55566 24.7422C6.51369 24.7227 6.48621 24.6904 6.47461 24.6582L6.47266 24.6523L6.25 24.0186C5.76682 22.5404 5.53125 21.0684 5.53125 19.5479C5.53126 18.012 5.82436 16.6327 6.38867 15.4414C8.07492 11.9055 11.8273 9.59473 15.9512 9.59473ZM15.9238 19.3809C16.021 19.3809 16.0908 19.4507 16.0908 19.5479C16.0908 21.6007 17.1393 23.5264 18.8984 24.709C19.9416 25.414 21.1499 25.7412 22.5645 25.7412C22.9156 25.7412 23.4777 25.6985 24.0371 25.6006L24.042 25.5996C24.1228 25.5847 24.2133 25.6357 24.2324 25.7422V25.7461C24.2472 25.8268 24.1962 25.9164 24.0898 25.9355L24.083 25.9375C23.3661 26.0759 22.734 26.0879 22.5645 26.0879C21.0634 26.0879 19.7653 25.7105 18.7139 24.9893L18.7109 24.9873C16.8559 23.7297 15.7578 21.6949 15.7578 19.5479C15.7579 19.4508 15.8269 19.381 15.9238 19.3809ZM9.35352 7.99219C13.397 5.90608 18.5868 5.89368 22.6426 7.97949C24.5709 8.96938 26.19 10.3696 27.4639 12.1582L27.4668 12.1621C27.5161 12.2302 27.5005 12.3383 27.4258 12.3906C27.3374 12.4521 27.2383 12.4271 27.1885 12.3555L27.1846 12.3506L26.9473 12.0283C25.8211 10.5434 24.4399 9.34407 22.833 8.46094L22.4854 8.27637C18.5161 6.24335 13.4527 6.24242 9.49512 8.29004C7.60855 9.26111 6.02863 10.6484 4.78418 12.3906L4.76953 12.4111L4.75684 12.4336C4.75414 12.4382 4.74998 12.4422 4.74023 12.4473C4.72826 12.4534 4.70541 12.4609 4.6709 12.4609C4.64027 12.4609 4.60461 12.452 4.56543 12.4268C4.49753 12.3759 4.47418 12.2797 4.53418 12.1934C5.8083 10.3926 7.42687 8.98171 9.35254 7.99316L9.35352 7.99219ZM16.0176 3.16797C18.771 3.16797 21.1728 3.7718 23.8271 5.1377V5.13867C23.9144 5.18426 23.9365 5.27754 23.8975 5.34961L23.8936 5.35742L23.8906 5.36426C23.871 5.40342 23.8468 5.4269 23.8252 5.44043C23.803 5.45423 23.7777 5.46092 23.751 5.46094C23.7265 5.46094 23.706 5.45503 23.6924 5.44727L23.6826 5.44141L23.6738 5.43652L23.1846 5.19238C20.7602 4.01335 18.586 3.50098 16.0176 3.50098C13.2973 3.50098 10.7081 4.14713 8.35254 5.44141C8.2837 5.47866 8.18064 5.46158 8.12207 5.37012C8.10479 5.33464 8.09937 5.2914 8.1123 5.24707C8.11913 5.22379 8.12944 5.20317 8.14258 5.18652L8.18945 5.14746C10.5959 3.84075 13.2339 3.16797 16.0176 3.16797Z" fill="url(#paint0_linear_11736_4440)" stroke="#6F6F74"/>
<defs>
<linearGradient id="paint0_linear_11736_4440" x1="4" y1="16.0013" x2="27.9951" y2="16.0013" gradientUnits="userSpaceOnUse">
<stop stop-color="#F46B1E"/>
<stop offset="1" stop-color="#FDB024"/>
</linearGradient>
</defs>
</svg>
