<svg width="16" height="16" viewBox="0 0 16 16" fill="none" xmlns="http://www.w3.org/2000/svg">
<path d="M7.58936 14.5898C11.4553 14.5898 14.5894 11.4558 14.5894 7.58984C14.5894 3.72385 11.4553 0.589844 7.58936 0.589844M7.58936 14.5898C3.72336 14.5898 0.589355 11.4558 0.589355 7.58984C0.589355 3.72385 3.72336 0.589844 7.58936 0.589844M7.58936 14.5898C5.80505 14.5898 4.35859 11.4558 4.35859 7.58984C4.35859 3.72385 5.80505 0.589844 7.58936 0.589844M7.58936 14.5898C9.37366 14.5898 10.8201 11.4558 10.8201 7.58984C10.8201 3.72385 9.37366 0.589844 7.58936 0.589844M0.589355 7.05138C0.589355 7.94353 3.72336 8.66677 7.58936 8.66677C11.4553 8.66677 14.5894 7.94353 14.5894 7.05138" stroke="#F9FAFB" stroke-width="1.17895" stroke-linecap="round" stroke-linejoin="round"/>
</svg>
