<svg width="20" height="20" viewBox="0 0 20 20" fill="none" xmlns="http://www.w3.org/2000/svg">
<g clip-path="url(#clip0_11775_822)">
<path d="M1.66675 13.332C1.66675 10.975 1.66675 9.7965 2.39898 9.06426C3.13121 8.33203 4.30973 8.33203 6.66675 8.33203H13.3334C15.6904 8.33203 16.8689 8.33203 17.6012 9.06426C18.3334 9.7965 18.3334 10.975 18.3334 13.332C18.3334 15.6891 18.3334 16.8676 17.6012 17.5998C16.8689 18.332 15.6904 18.332 13.3334 18.332H6.66675C4.30973 18.332 3.13121 18.332 2.39898 17.5998C1.66675 16.8676 1.66675 15.6891 1.66675 13.332Z" stroke="#8C8C93" stroke-width="1.5"/>
<path d="M5 8.33464V6.66797C5 3.90655 7.23858 1.66797 10 1.66797C12.7614 1.66797 15 3.90655 15 6.66797V8.33464" stroke="#8C8C93" stroke-width="1.5" stroke-linecap="round"/>
<path d="M6.66675 13.332H6.67425M9.99258 13.332H10.0001M13.3259 13.332H13.3334" stroke="#8C8C93" stroke-width="2" stroke-linecap="round" stroke-linejoin="round"/>
</g>
<defs>
<clipPath id="clip0_11775_822">
<rect width="20" height="20" fill="white"/>
</clipPath>
</defs>
</svg>
