<svg width="20" height="20" viewBox="0 0 20 20" fill="none" xmlns="http://www.w3.org/2000/svg">
<path d="M8.36458 4.42884L8.90542 5.39795C9.39351 6.27252 9.19757 7.4198 8.42884 8.18853C8.42884 8.18853 7.4964 9.12099 9.18701 10.8116C10.8776 12.5022 11.8101 11.5698 11.8101 11.5698C12.5788 10.801 13.7261 10.6051 14.6007 11.0932L15.5698 11.634C16.8904 12.3711 17.0463 14.2231 15.8856 15.3839C15.1881 16.0814 14.3336 16.6241 13.389 16.6599C11.7989 16.7202 9.09848 16.3178 6.38967 13.6089C3.68086 10.9001 3.27843 8.19972 3.33871 6.6096C3.37452 5.66503 3.91725 4.81056 4.61476 4.11306C5.77555 2.95227 7.62756 3.10823 8.36458 4.42884Z" stroke="#8C8C93" stroke-width="1.5" stroke-linecap="round"/>
</svg>
