<svg width="236" height="150" viewBox="0 0 236 150" fill="none" xmlns="http://www.w3.org/2000/svg">
<circle cx="116" cy="75" r="75" fill="#F4F7FA"/>
<circle cx="116" cy="75" r="55" fill="white"/>
<path d="M124.223 104.036C122.617 104.368 120.963 104.536 119.301 104.536C104.514 104.536 91.9954 91.2823 91.3933 74.9886C91.3833 74.7213 91.3783 74.454 91.3734 74.1892V73.9493C91.3734 73.757 91.3734 73.5646 91.3734 73.3722V73.1249C91.3808 72.8976 91.3883 72.6727 91.3958 72.4479L91.4008 72.3355C91.4133 72.0731 91.4283 71.8133 91.4458 71.556L91.4633 71.3387C91.4783 71.1463 91.4933 70.9564 91.5108 70.7666L91.5357 70.5167C91.5557 70.3144 91.5782 70.1145 91.6032 69.9146L91.6232 69.7423C91.6557 69.4899 91.6906 69.2376 91.7281 68.9853L91.7581 68.8004C91.7881 68.6081 91.8205 68.4157 91.853 68.2258L91.8955 67.9835C91.9305 67.7961 91.9654 67.6113 92.0029 67.4264L92.0429 67.229C92.0953 66.9842 92.1478 66.7394 92.2053 66.497L92.2378 66.3621C92.2852 66.1623 92.3352 65.9624 92.3876 65.7625C92.4076 65.6876 92.4276 65.6126 92.4476 65.5352C92.4951 65.3603 92.5425 65.1854 92.5925 65.0131L92.6525 64.8032C92.7224 64.5659 92.7949 64.331 92.8773 64.0787L92.8898 64.0437C92.9597 63.8289 93.0322 63.614 93.1071 63.3992L93.1846 63.1843C93.2445 63.017 93.307 62.8521 93.367 62.6897L93.4494 62.4773C93.5294 62.2725 93.6093 62.0701 93.6942 61.8653L93.7192 61.8003C93.8117 61.578 93.9091 61.3556 94.0065 61.1358L94.094 60.9434C94.1664 60.7835 94.2414 60.6236 94.3163 60.4662L94.4162 60.2589C94.5012 60.084 94.5886 59.9116 94.6761 59.7367L94.7385 59.6118C94.8484 59.3995 94.9609 59.1896 95.0733 58.9848L95.1657 58.8224C95.2531 58.665 95.3431 58.5101 95.433 58.3552L95.5479 58.1603C95.6404 58.0054 95.7353 57.8506 95.8277 57.6982L95.9227 57.5458C96.0476 57.3459 96.175 57.151 96.3074 56.9537L96.3899 56.8313C96.4948 56.6764 96.5997 56.5215 96.7071 56.3691L96.837 56.1842C96.937 56.0443 97.0394 55.9044 97.1418 55.767L97.2617 55.6071C97.4016 55.4222 97.5441 55.2374 97.689 55.055L97.7464 54.9826C97.8738 54.8252 98.0012 54.6678 98.1336 54.5104L98.2735 54.3455C98.3835 54.2181 98.4934 54.0907 98.6058 53.9633L98.7457 53.8059C98.8956 53.641 99.0455 53.4761 99.1954 53.3162L99.2154 53.2962C99.3728 53.1288 99.5352 52.964 99.6975 52.8016L99.8424 52.6567C99.9624 52.5393 100.082 52.4218 100.202 52.3094L100.36 52.1595C100.502 52.0271 100.644 51.8972 100.789 51.7673L100.869 51.6948C101.047 51.5375 101.229 51.3826 101.409 51.2302L101.556 51.1078C101.699 50.9903 101.841 50.8754 101.986 50.7605L102.141 50.6381C102.328 50.4932 102.518 50.3483 102.71 50.2084L102.773 50.1634C102.945 50.0385 103.118 49.9161 103.293 49.7962L103.462 49.6788C103.62 49.5713 103.777 49.4689 103.937 49.3665L104.07 49.2815C104.269 49.1541 104.469 49.0317 104.672 48.9093L104.814 48.8268C104.976 48.7319 105.139 48.6395 105.301 48.547L105.481 48.4471C105.673 48.3422 105.866 48.2398 106.061 48.1398L106.113 48.1123C106.323 48.0049 106.535 47.9025 106.753 47.8001L106.93 47.7176C107.097 47.6402 107.265 47.5652 107.432 47.4928L107.605 47.4178C107.822 47.3254 108.042 47.2355 108.264 47.148L108.367 47.108C108.556 47.0356 108.746 46.9631 108.936 46.8957L109.133 46.8257C109.318 46.7608 109.506 46.6983 109.691 46.6409L109.823 46.5984C110.05 46.526 110.28 46.4585 110.51 46.3935L110.682 46.3461C110.862 46.2961 111.045 46.2486 111.23 46.2037L111.429 46.1537C111.657 46.0987 111.887 46.0463 112.116 45.9988L111.964 45.2643C111.964 45.2643 111.971 45.2643 111.974 45.2643L112.136 45.9963L111.834 44.5273L107.1 45.5067C106.848 45.5591 106.598 45.6166 106.348 45.6765L106.136 45.729C105.941 45.7765 105.748 45.8264 105.556 45.8814L105.374 45.9314C105.129 46.0013 104.886 46.0713 104.642 46.1487L104.504 46.1937C104.304 46.2561 104.107 46.3236 103.91 46.391L103.7 46.466C103.497 46.5384 103.295 46.6134 103.093 46.6908L102.98 46.7333C102.745 46.8257 102.513 46.9207 102.283 47.0181L102.098 47.0981C101.919 47.1755 101.741 47.2554 101.564 47.3379L101.374 47.4253C101.147 47.5328 100.919 47.6427 100.694 47.7576L100.642 47.7851C100.435 47.89 100.23 47.9999 100.027 48.1098L99.835 48.2173C99.6626 48.3147 99.4902 48.4121 99.3178 48.5146L99.1679 48.602C98.9531 48.7294 98.7407 48.8618 98.5309 48.9942L98.391 49.0842C98.2211 49.1941 98.0537 49.304 97.8863 49.4189L97.7064 49.5413C97.5216 49.6688 97.3367 49.7987 97.1518 49.9336L97.0869 49.981C96.8845 50.1284 96.6847 50.2808 96.4848 50.4357L96.3224 50.5631C96.17 50.6831 96.0176 50.8055 95.8677 50.9304L95.7103 51.0603C95.518 51.2202 95.3256 51.3851 95.1232 51.5649L95.0508 51.6299C94.8984 51.7648 94.746 51.9047 94.5986 52.0421L94.4312 52.202C94.3038 52.3244 94.1764 52.4468 94.0515 52.5692L93.8966 52.7216C93.7242 52.894 93.5543 53.0689 93.3894 53.2413L93.3695 53.2638C93.2071 53.4336 93.0472 53.6085 92.8923 53.7834L92.7424 53.9508C92.625 54.0832 92.5076 54.2181 92.3926 54.353L92.2452 54.5279C92.1078 54.6928 91.9729 54.8576 91.8405 55.0225L91.7781 55.1C91.6257 55.2923 91.4758 55.4847 91.3284 55.6821L91.2035 55.852C91.096 55.9969 90.9886 56.1418 90.8837 56.2891L90.7463 56.484C90.6339 56.6439 90.5214 56.8063 90.4115 56.9712L90.3216 57.1011C90.1842 57.3059 90.0518 57.5158 89.9194 57.7231L89.8194 57.883C89.7195 58.0454 89.6196 58.2053 89.5246 58.3702L89.4022 58.5775C89.3073 58.7399 89.2149 58.9048 89.1224 59.0672L89.0275 59.2371C88.9076 59.4569 88.7877 59.6768 88.6727 59.9016L88.6078 60.0315C88.5153 60.2139 88.4229 60.3963 88.333 60.5787L88.228 60.796C88.1481 60.9634 88.0707 61.1308 87.9932 61.2982L87.9008 61.5005C87.7983 61.7304 87.6959 61.9627 87.5985 62.2L87.571 62.27C87.4836 62.4823 87.3986 62.6947 87.3137 62.9095L87.2287 63.1319C87.1638 63.3043 87.0988 63.4791 87.0364 63.654L86.9564 63.8789C86.8765 64.1037 86.8015 64.3285 86.7216 64.5709L86.7091 64.6108C86.6292 64.8557 86.5542 65.103 86.4793 65.3503L86.4143 65.5702C86.3618 65.7526 86.3094 65.9349 86.2619 66.1173L86.197 66.3571C86.142 66.5645 86.092 66.7718 86.0421 66.9792L86.0071 67.1216C85.9471 67.3764 85.8897 67.6312 85.8372 67.8886L85.7947 68.0959C85.7548 68.2883 85.7173 68.4831 85.6823 68.678L85.6374 68.9303C85.6024 69.1302 85.5699 69.3326 85.5374 69.5349L85.5074 69.7273C85.4675 69.9896 85.4325 70.2544 85.3975 70.5192L85.3775 70.6991C85.3525 70.909 85.3301 71.1188 85.3076 71.3312L85.2826 71.591C85.2651 71.7908 85.2476 71.9907 85.2326 72.1881L85.2151 72.4154C85.1977 72.6852 85.1802 72.9575 85.1677 73.2323L85.1627 73.3523C85.1527 73.5871 85.1452 73.8219 85.1427 74.0593V74.3191C85.1377 74.5189 85.1352 74.7213 85.1377 74.9212V75.1735C85.1427 75.4508 85.1477 75.7306 85.1602 76.0104C85.7922 93.0985 98.983 106.999 114.567 106.999C116.328 106.999 118.087 106.819 119.791 106.467L124.525 105.487L124.22 104.018L124.223 104.036ZM111.981 45.2668H111.971L111.827 44.5648L111.981 45.2668Z" fill="#12B76A"/>
<path d="M119.302 106.037C103.717 106.037 90.5267 92.1339 89.8946 75.0484C89.5723 66.3369 92.6352 57.9703 98.2938 52.0969C103.325 46.8755 109.991 44 117.061 44C132.645 44 145.836 57.9028 146.468 74.9909C146.79 83.7023 143.727 92.0665 138.069 97.9399C133.037 103.161 126.372 106.037 119.299 106.037H119.302Z" fill="#25BC77"/>
<path d="M145.72 75.0189C145.103 58.3006 132.272 44.75 117.063 44.75C101.853 44.75 90.0266 58.3006 90.6437 75.0189C91.2608 91.7347 104.092 105.285 119.301 105.285C134.511 105.285 146.337 91.7347 145.72 75.0189Z" fill="url(#paint0_linear_12537_26680)"/>
<path opacity="0.4" d="M144.991 75.7764H91.4332C91.4157 75.5166 91.4032 75.2568 91.3932 74.9944C91.0859 66.6852 93.9964 58.7208 99.3751 53.1372C104.119 48.2131 110.402 45.5 117.063 45.5C131.85 45.5 144.371 58.7558 144.973 75.0494C144.983 75.2917 144.988 75.5341 144.991 75.7764Z" fill="url(#paint1_linear_12537_26680)" style="mix-blend-mode:screen"/>
<path d="M128.808 60.8058C128.72 60.8233 128.633 60.8458 128.548 60.8707C128.521 60.8782 128.496 60.8882 128.468 60.8957C128.408 60.9132 128.348 60.9332 128.288 60.9557C128.258 60.9657 128.228 60.9782 128.198 60.9907C128.141 61.0131 128.081 61.0381 128.023 61.0656C127.996 61.0781 127.971 61.0881 127.944 61.1031C127.866 61.1406 127.789 61.183 127.711 61.2255C127.709 61.2255 127.704 61.2305 127.701 61.2305C127.621 61.278 127.544 61.3279 127.466 61.3804C127.444 61.3979 127.419 61.4154 127.396 61.4304C127.344 61.4703 127.289 61.5103 127.239 61.5503C127.214 61.5703 127.187 61.5927 127.162 61.6152C127.142 61.6327 127.122 61.6477 127.102 61.6652C127.072 61.6927 127.042 61.7226 127.012 61.7501C126.989 61.7701 126.967 61.7901 126.947 61.8126C126.877 61.88 126.809 61.9525 126.744 62.0274L112.102 78.8032L113.154 78.5859L127.796 61.8101C127.861 61.7351 127.929 61.6652 127.998 61.5952C128.021 61.5728 128.041 61.5528 128.063 61.5328C128.113 61.4853 128.163 61.4403 128.213 61.3979C128.238 61.3754 128.263 61.3554 128.291 61.3329C128.343 61.2904 128.396 61.2505 128.448 61.213C128.471 61.1955 128.496 61.178 128.518 61.163C128.596 61.1106 128.673 61.0581 128.753 61.0131C128.755 61.0131 128.76 61.0106 128.763 61.0081C128.84 60.9632 128.918 60.9232 128.995 60.8832C129.02 60.8707 129.048 60.8582 129.073 60.8458C129.13 60.8183 129.188 60.7933 129.248 60.7708C129.278 60.7583 129.308 60.7483 129.335 60.7358C129.395 60.7134 129.455 60.6934 129.515 60.6759C129.542 60.6684 129.567 60.6584 129.595 60.6509C129.682 60.6259 129.767 60.6034 129.857 60.5859L128.805 60.8033L128.808 60.8058Z" fill="#E2E2E2"/>
<path d="M110.647 88.0029L103.907 80.8854C102.266 79.1541 102.161 76.3436 103.675 74.6123C103.74 74.5373 103.807 74.4674 103.877 74.3974C103.9 74.3749 103.922 74.355 103.945 74.335C103.995 74.2875 104.045 74.2425 104.095 74.2001C104.12 74.1776 104.145 74.1576 104.172 74.1351C104.224 74.0926 104.277 74.0527 104.329 74.0152C104.352 73.9977 104.377 73.9802 104.399 73.9627C104.477 73.9103 104.554 73.8578 104.634 73.8128C104.634 73.8128 104.634 73.8128 104.637 73.8128C104.717 73.7679 104.797 73.7254 104.876 73.6854C104.901 73.6729 104.929 73.6604 104.954 73.6504C105.011 73.623 105.069 73.598 105.129 73.5755C105.159 73.563 105.189 73.553 105.219 73.5405C105.279 73.518 105.339 73.4981 105.399 73.4806C105.426 73.4731 105.451 73.4631 105.479 73.4556C105.566 73.4306 105.651 73.4081 105.738 73.3906L104.687 73.608C104.599 73.6255 104.512 73.6479 104.427 73.6729C104.399 73.6804 104.374 73.6904 104.347 73.6979C104.287 73.7154 104.227 73.7354 104.167 73.7579C104.137 73.7679 104.107 73.7804 104.08 73.7928C104.02 73.8153 103.962 73.8428 103.905 73.8678C103.88 73.8803 103.852 73.8903 103.827 73.9028C103.745 73.9427 103.665 73.9852 103.587 74.0302C103.507 74.0776 103.43 74.1276 103.353 74.1801C103.328 74.1976 103.305 74.215 103.28 74.2325C103.228 74.27 103.175 74.31 103.123 74.3525C103.098 74.3724 103.07 74.3949 103.045 74.4174C103.025 74.4349 103.005 74.4499 102.988 74.4649C102.958 74.4924 102.928 74.5223 102.898 74.5523C102.875 74.5723 102.853 74.5948 102.83 74.6148C102.76 74.6822 102.693 74.7547 102.628 74.8296C101.114 76.5609 101.219 79.3715 102.86 81.1027L109.601 88.2203C110.42 89.0872 111.469 89.5194 112.504 89.5194C112.754 89.5194 113.001 89.4944 113.246 89.4444L114.297 89.2271C114.053 89.277 113.805 89.302 113.555 89.302C112.521 89.302 111.474 88.8698 110.652 88.0029H110.647Z" fill="#E2E2E2"/>
<path d="M133.504 61.8147C132.685 60.9478 131.635 60.5156 130.601 60.5156C129.567 60.5156 128.55 60.9478 127.793 61.8147L113.151 78.5905L109.383 74.6108C108.564 73.7439 107.515 73.3117 106.48 73.3117C105.446 73.3117 104.432 73.7439 103.675 74.6108C102.161 76.3421 102.266 79.1526 103.907 80.8839L110.648 88.0015C111.467 88.8684 112.516 89.3006 113.551 89.3006C114.585 89.3006 115.602 88.8684 116.356 88.0015L133.736 68.0878C135.248 66.3541 135.143 63.546 133.504 61.8122V61.8147Z" fill="white"/>
<path d="M219.339 42.2994L223.728 46.7653L229.976 46.3401L225.51 50.7297L225.935 56.9772L221.546 52.5113L215.298 52.9365L219.764 48.547L219.339 42.2994Z" fill="#FCB72E"/>
<path d="M13.0432 114.043L11.9708 120.213L15.9563 125.043L9.78676 123.97L4.95674 127.956L6.0291 121.786L2.04368 116.956L8.21318 118.029L13.0432 114.043Z" fill="#FCB72E"/>
<path d="M201.224 139.427L201.363 143.002L204.168 145.224L200.593 145.363L198.371 148.168L198.232 144.593L195.427 142.371L199.002 142.232L201.224 139.427Z" fill="#FCB72E"/>
<path d="M15.5977 7L16.8395 10.3559L20.1954 11.5977L16.8395 12.8395L15.5977 16.1954L14.3559 12.8395L11 11.5977L14.3559 10.3559L15.5977 7Z" fill="#FCB72E"/>
<path d="M184.051 1.99759L184.148 4.49764L186.11 6.05119L183.609 6.14843L182.056 8.10959L181.959 5.60955L179.998 4.056L182.498 3.95876L184.051 1.99759Z" fill="#FCB72E"/>
<defs>
<linearGradient id="paint0_linear_12537_26680" x1="118.182" y1="105.288" x2="119.136" y2="45" gradientUnits="userSpaceOnUse">
<stop stop-color="#12B76A"/>
<stop offset="1" stop-color="#11BA6B"/>
</linearGradient>
<linearGradient id="paint1_linear_12537_26680" x1="116.039" y1="44.0185" x2="118.669" y2="82.047" gradientUnits="userSpaceOnUse">
<stop offset="0.1" stop-color="white"/>
<stop offset="0.31" stop-color="#B0B0B0"/>
<stop offset="0.57" stop-color="#525252"/>
<stop offset="0.75" stop-color="#171717"/>
<stop offset="0.84"/>
</linearGradient>
</defs>
</svg>
