<svg width="12" height="12" viewBox="0 0 12 12" fill="none" xmlns="http://www.w3.org/2000/svg">
<circle cx="6" cy="3" r="2" fill="currentColor"/>
<path fill-rule="evenodd" clip-rule="evenodd" d="M8.25 11C7.42504 11 7.01256 11 6.75628 10.7437C6.5 10.4874 6.5 10.075 6.5 9.25C6.5 8.42504 6.5 8.01256 6.75628 7.75628C7.01256 7.5 7.42504 7.5 8.25 7.5C9.07496 7.5 9.48744 7.5 9.74372 7.75628C10 8.01256 10 8.42504 10 9.25C10 10.075 10 10.4874 9.74372 10.7437C9.48744 11 9.07496 11 8.25 11ZM9.23402 8.87291C9.34792 8.759 9.34792 8.57433 9.23402 8.46043C9.12011 8.34652 8.93544 8.34652 8.82154 8.46043L7.86111 9.42085L7.67846 9.2382C7.56456 9.1243 7.37989 9.1243 7.26598 9.2382C7.15208 9.35211 7.15208 9.53678 7.26598 9.65068L7.65487 10.0396C7.76877 10.1535 7.95345 10.1535 8.06735 10.0396L9.23402 8.87291Z" fill="currentColor"/>
<path opacity="0.5" d="M9.04737 7.51558C8.83496 7.5 8.57437 7.5 8.25 7.5C7.42504 7.5 7.01256 7.5 6.75628 7.75628C6.5 8.01256 6.5 8.42504 6.5 9.25C6.5 9.83316 6.5 10.2102 6.59053 10.4717C6.39856 10.4903 6.20126 10.5 6 10.5C4.067 10.5 2.5 9.60457 2.5 8.5C2.5 7.39543 4.067 6.5 6 6.5C7.30672 6.5 8.44618 6.9092 9.04737 7.51558Z" fill="currentColor"/>
</svg>
